<svg width="45" height="47" viewBox="0 0 45 47" fill="none" xmlns="http://www.w3.org/2000/svg">
<path d="M13.5 4.70001C12.3065 4.70001 11.1619 5.19519 10.318 6.07661C9.47411 6.95803 9 8.15349 9 9.40001V37.6C9 38.8465 9.47411 40.042 10.318 40.9234C11.1619 41.8048 12.3065 42.3 13.5 42.3H31.5C32.6935 42.3 33.8381 41.8048 34.682 40.9234C35.5259 40.042 36 38.8465 36 37.6V9.40001C36 8.15349 35.5259 6.95803 34.682 6.07661C33.8381 5.19519 32.6935 4.70001 31.5 4.70001H13.5ZM15.75 32.9H29.25C29.8467 32.9 30.419 33.1476 30.841 33.5883C31.2629 34.029 31.5 34.6268 31.5 35.25C31.5 35.8733 31.2629 36.471 30.841 36.9117C30.419 37.3524 29.8467 37.6 29.25 37.6H15.75C15.1533 37.6 14.581 37.3524 14.159 36.9117C13.7371 36.471 13.5 35.8733 13.5 35.25C13.5 34.6268 13.7371 34.029 14.159 33.5883C14.581 33.1476 15.1533 32.9 15.75 32.9Z" fill="black"/>
</svg>
