<svg width="48" height="47" viewBox="0 0 48 47" fill="none" xmlns="http://www.w3.org/2000/svg">
<path d="M12 9.40001C12 8.15349 12.5057 6.95803 13.4059 6.07661C14.3061 5.19519 15.527 4.70001 16.8 4.70001H31.2C32.473 4.70001 33.6939 5.19519 34.5941 6.07661C35.4943 6.95803 36 8.15349 36 9.40001V11.75H12V9.40001ZM12 14.1V37.6C12 38.8465 12.5057 40.042 13.4059 40.9234C14.3061 41.8048 15.527 42.3 16.8 42.3H31.2C32.473 42.3 33.6939 41.8048 34.5941 40.9234C35.4943 40.042 36 38.8465 36 37.6V14.1H12Z" fill="black"/>
</svg>
