<svg width="57" height="53" viewBox="0 0 57 53" fill="none" xmlns="http://www.w3.org/2000/svg">
<mask id="mask0_3_27" style="mask-type:luminance" maskUnits="userSpaceOnUse" x="2" y="6" width="53" height="41">
<path d="M50.3108 8.83334H6.68919C5.6182 8.83334 4.75 9.64062 4.75 10.6364V42.3636C4.75 43.3594 5.6182 44.1667 6.68919 44.1667H50.3108C51.3818 44.1667 52.25 43.3594 52.25 42.3636V10.6364C52.25 9.64062 51.3818 8.83334 50.3108 8.83334Z" fill="white" stroke="white" stroke-width="4"/>
<path d="M19 20.9218C16.625 17.6667 12.4664 19.8066 12.7644 23.1522C13.0625 26.5 17.8125 26.5 18.1082 29.8478C18.4062 33.1935 14.25 35.3333 11.875 32.0772M30.875 19.875H26.125V34.2292H30.875M26.125 27.6042H30.875" stroke="black" stroke-width="4" stroke-linecap="round" stroke-linejoin="round"/>
<path d="M45.125 23.1875C45.125 21.3581 43.53 19.875 41.5625 19.875C39.595 19.875 38 21.3581 38 23.1875V30.9167C38 32.7461 39.595 34.2292 41.5625 34.2292C43.53 34.2292 45.125 32.7461 45.125 30.9167V23.1875Z" stroke="black" stroke-width="4" stroke-linecap="round" stroke-linejoin="round"/>
</mask>
<g mask="url(#mask0_3_27)">
<path d="M0 0H57V53H0V0Z" fill="black"/>
</g>
</svg>
