<svg width="44" height="44" viewBox="0 0 44 44" fill="none" xmlns="http://www.w3.org/2000/svg">
<path d="M32.4844 27.8437C30.9156 27.8433 29.4092 28.4575 28.288 29.5548L17.3594 23.4102C17.5839 22.4835 17.5839 21.5165 17.3594 20.5898L28.2846 14.4452C29.3053 15.438 30.646 16.0351 32.0667 16.1297C33.4874 16.2242 34.8954 15.8099 36.0386 14.9611C37.1818 14.1123 37.9855 12.8842 38.3059 11.4969C38.6263 10.1095 38.4425 8.65341 37.7873 7.38925C37.1321 6.12508 36.0483 5.13539 34.73 4.59736C33.4117 4.05933 31.9449 4.00808 30.5923 4.4528C29.2396 4.89752 28.0894 5.80916 27.3476 7.02452C26.6058 8.23988 26.3207 9.6796 26.5435 11.0859L15.3605 17.3766C14.4821 16.6447 13.4133 16.1783 12.2794 16.0321C11.1455 15.8858 9.99334 16.0657 8.95799 16.5507C7.92264 17.0357 7.04694 17.8057 6.43348 18.7705C5.82002 19.7353 5.4942 20.855 5.4942 21.9983C5.4942 23.1416 5.82002 24.2612 6.43348 25.226C7.04694 26.1908 7.92264 26.9608 8.95799 27.4458C9.99334 27.9308 11.1455 28.1107 12.2794 27.9645C13.4133 27.8182 14.4821 27.3518 15.3605 26.62L26.5435 32.9141C26.3502 34.129 26.534 35.374 27.0702 36.4812C27.6064 37.5885 28.4692 38.5047 29.5422 39.1064C30.6153 39.7081 31.847 39.9663 33.0714 39.8463C34.2957 39.7263 35.4538 39.2337 36.3896 38.4351C37.3254 37.6364 37.9938 36.5701 38.3047 35.3798C38.6157 34.1895 38.5542 32.9325 38.1286 31.7783C37.703 30.624 36.9337 29.628 35.9245 28.9244C34.9153 28.2209 33.7146 27.8437 32.4844 27.8437Z" fill="black"/>
</svg>
